<mxfile host="app.diagrams.net" modified="2022-03-29T07:41:54.015Z" agent="5.0 (Macintosh; Intel Mac OS X 10_15_7) AppleWebKit/605.1.15 (KHTML, like Gecko) Version/15.4 Safari/605.1.15" etag="F9W5wWrmO2_jbvCwLRiT" version="17.1.3" type="github" pages="2">
  <diagram id="r_sVIPPe-IEZTgFdUQHv" name="Page-1">
    <mxGraphModel dx="1002" dy="679" grid="1" gridSize="10" guides="1" tooltips="1" connect="1" arrows="1" fold="1" page="1" pageScale="1" pageWidth="827" pageHeight="1169" math="0" shadow="0">
      <root>
        <mxCell id="0" />
        <mxCell id="1" parent="0" />
        <mxCell id="f4UbcGH3jjuggLkURZQa-3" style="edgeStyle=orthogonalEdgeStyle;rounded=0;orthogonalLoop=1;jettySize=auto;html=1;exitX=1;exitY=0.5;exitDx=0;exitDy=0;" edge="1" parent="1" source="f4UbcGH3jjuggLkURZQa-1" target="f4UbcGH3jjuggLkURZQa-4">
          <mxGeometry relative="1" as="geometry">
            <mxPoint x="210" y="220" as="targetPoint" />
          </mxGeometry>
        </mxCell>
        <mxCell id="f4UbcGH3jjuggLkURZQa-1" value="&lt;font style=&quot;font-size: 14px&quot;&gt;ECT&lt;br&gt;优化图像&lt;/font&gt;" style="ellipse;whiteSpace=wrap;html=1;" vertex="1" parent="1">
          <mxGeometry x="140" y="190" width="80" height="60" as="geometry" />
        </mxCell>
        <mxCell id="f4UbcGH3jjuggLkURZQa-5" style="edgeStyle=orthogonalEdgeStyle;rounded=0;orthogonalLoop=1;jettySize=auto;html=1;exitX=1;exitY=0.5;exitDx=0;exitDy=0;" edge="1" parent="1" source="f4UbcGH3jjuggLkURZQa-2" target="f4UbcGH3jjuggLkURZQa-6">
          <mxGeometry relative="1" as="geometry">
            <mxPoint x="220" y="340" as="targetPoint" />
          </mxGeometry>
        </mxCell>
        <mxCell id="f4UbcGH3jjuggLkURZQa-2" value="&lt;font style=&quot;font-size: 14px&quot;&gt;ERT&lt;br&gt;优化图像&lt;/font&gt;" style="ellipse;whiteSpace=wrap;html=1;" vertex="1" parent="1">
          <mxGeometry x="140" y="310" width="80" height="60" as="geometry" />
        </mxCell>
        <mxCell id="f4UbcGH3jjuggLkURZQa-16" style="edgeStyle=orthogonalEdgeStyle;rounded=0;orthogonalLoop=1;jettySize=auto;html=1;exitX=1;exitY=0.5;exitDx=0;exitDy=0;entryX=0.5;entryY=1;entryDx=0;entryDy=0;" edge="1" parent="1" source="f4UbcGH3jjuggLkURZQa-4" target="f4UbcGH3jjuggLkURZQa-15">
          <mxGeometry relative="1" as="geometry" />
        </mxCell>
        <mxCell id="f4UbcGH3jjuggLkURZQa-4" value="&lt;font style=&quot;font-size: 16px&quot;&gt;编码器1&lt;/font&gt;" style="rounded=0;whiteSpace=wrap;html=1;" vertex="1" parent="1">
          <mxGeometry x="260" y="190" width="100" height="60" as="geometry" />
        </mxCell>
        <mxCell id="f4UbcGH3jjuggLkURZQa-18" style="edgeStyle=orthogonalEdgeStyle;rounded=0;orthogonalLoop=1;jettySize=auto;html=1;exitX=1;exitY=0.5;exitDx=0;exitDy=0;" edge="1" parent="1" source="f4UbcGH3jjuggLkURZQa-6" target="f4UbcGH3jjuggLkURZQa-17">
          <mxGeometry relative="1" as="geometry" />
        </mxCell>
        <mxCell id="f4UbcGH3jjuggLkURZQa-6" value="&lt;font style=&quot;font-size: 16px&quot;&gt;编码器2&lt;/font&gt;" style="rounded=0;whiteSpace=wrap;html=1;" vertex="1" parent="1">
          <mxGeometry x="260" y="310" width="100" height="60" as="geometry" />
        </mxCell>
        <mxCell id="f4UbcGH3jjuggLkURZQa-21" style="edgeStyle=orthogonalEdgeStyle;rounded=0;orthogonalLoop=1;jettySize=auto;html=1;exitX=0.5;exitY=0;exitDx=0;exitDy=0;entryX=0.5;entryY=0;entryDx=0;entryDy=0;" edge="1" parent="1" source="f4UbcGH3jjuggLkURZQa-15" target="f4UbcGH3jjuggLkURZQa-19">
          <mxGeometry relative="1" as="geometry" />
        </mxCell>
        <mxCell id="f4UbcGH3jjuggLkURZQa-15" value="&lt;font style=&quot;font-size: 16px&quot;&gt;特征1&lt;/font&gt;" style="rounded=1;whiteSpace=wrap;html=1;rotation=90;" vertex="1" parent="1">
          <mxGeometry x="380" y="210" width="100" height="20" as="geometry" />
        </mxCell>
        <mxCell id="f4UbcGH3jjuggLkURZQa-22" style="edgeStyle=orthogonalEdgeStyle;rounded=0;orthogonalLoop=1;jettySize=auto;html=1;exitX=0.5;exitY=0;exitDx=0;exitDy=0;entryX=0.5;entryY=1;entryDx=0;entryDy=0;" edge="1" parent="1" source="f4UbcGH3jjuggLkURZQa-17" target="f4UbcGH3jjuggLkURZQa-19">
          <mxGeometry relative="1" as="geometry" />
        </mxCell>
        <mxCell id="f4UbcGH3jjuggLkURZQa-17" value="&lt;font style=&quot;font-size: 17px&quot;&gt;特征2&lt;/font&gt;" style="rounded=1;whiteSpace=wrap;html=1;rotation=90;" vertex="1" parent="1">
          <mxGeometry x="380" y="330" width="100" height="20" as="geometry" />
        </mxCell>
        <mxCell id="f4UbcGH3jjuggLkURZQa-24" style="edgeStyle=orthogonalEdgeStyle;rounded=0;orthogonalLoop=1;jettySize=auto;html=1;exitX=1;exitY=0.5;exitDx=0;exitDy=0;entryX=0.5;entryY=1;entryDx=0;entryDy=0;" edge="1" parent="1" source="f4UbcGH3jjuggLkURZQa-19" target="f4UbcGH3jjuggLkURZQa-23">
          <mxGeometry relative="1" as="geometry" />
        </mxCell>
        <mxCell id="f4UbcGH3jjuggLkURZQa-19" value="&lt;font style=&quot;font-size: 14px&quot;&gt;融合规则&lt;/font&gt;" style="rhombus;whiteSpace=wrap;html=1;rounded=1;" vertex="1" parent="1">
          <mxGeometry x="460" y="240" width="80" height="80" as="geometry" />
        </mxCell>
        <mxCell id="f4UbcGH3jjuggLkURZQa-26" style="edgeStyle=orthogonalEdgeStyle;rounded=0;orthogonalLoop=1;jettySize=auto;html=1;exitX=0.5;exitY=0;exitDx=0;exitDy=0;entryX=0;entryY=0.5;entryDx=0;entryDy=0;" edge="1" parent="1" source="f4UbcGH3jjuggLkURZQa-23" target="f4UbcGH3jjuggLkURZQa-25">
          <mxGeometry relative="1" as="geometry" />
        </mxCell>
        <mxCell id="f4UbcGH3jjuggLkURZQa-23" value="&lt;font style=&quot;font-size: 15px&quot;&gt;融合特征&lt;/font&gt;" style="rounded=1;whiteSpace=wrap;html=1;rotation=90;" vertex="1" parent="1">
          <mxGeometry x="540" y="270" width="100" height="20" as="geometry" />
        </mxCell>
        <mxCell id="f4UbcGH3jjuggLkURZQa-29" value="" style="edgeStyle=orthogonalEdgeStyle;rounded=0;orthogonalLoop=1;jettySize=auto;html=1;" edge="1" parent="1" source="f4UbcGH3jjuggLkURZQa-25" target="f4UbcGH3jjuggLkURZQa-28">
          <mxGeometry relative="1" as="geometry" />
        </mxCell>
        <mxCell id="f4UbcGH3jjuggLkURZQa-25" value="&lt;font style=&quot;font-size: 16px&quot;&gt;解码器&lt;/font&gt;" style="rounded=0;whiteSpace=wrap;html=1;" vertex="1" parent="1">
          <mxGeometry x="640" y="250" width="100" height="60" as="geometry" />
        </mxCell>
        <mxCell id="f4UbcGH3jjuggLkURZQa-51" style="edgeStyle=orthogonalEdgeStyle;rounded=0;orthogonalLoop=1;jettySize=auto;html=1;exitX=0.5;exitY=1;exitDx=0;exitDy=0;entryX=1;entryY=0.5;entryDx=0;entryDy=0;fontSize=18;" edge="1" parent="1" source="f4UbcGH3jjuggLkURZQa-28" target="f4UbcGH3jjuggLkURZQa-42">
          <mxGeometry relative="1" as="geometry" />
        </mxCell>
        <mxCell id="f4UbcGH3jjuggLkURZQa-28" value="&lt;font style=&quot;font-size: 16px&quot;&gt;融合图像F&lt;/font&gt;" style="ellipse;whiteSpace=wrap;html=1;rounded=0;" vertex="1" parent="1">
          <mxGeometry x="780" y="250" width="80" height="60" as="geometry" />
        </mxCell>
        <mxCell id="f4UbcGH3jjuggLkURZQa-53" style="edgeStyle=orthogonalEdgeStyle;rounded=0;orthogonalLoop=1;jettySize=auto;html=1;exitX=0;exitY=0.5;exitDx=0;exitDy=0;entryX=1;entryY=0.5;entryDx=0;entryDy=0;fontSize=18;" edge="1" parent="1" source="f4UbcGH3jjuggLkURZQa-40" target="f4UbcGH3jjuggLkURZQa-42">
          <mxGeometry relative="1" as="geometry" />
        </mxCell>
        <mxCell id="f4UbcGH3jjuggLkURZQa-40" value="&lt;font style=&quot;font-size: 16px&quot;&gt;真实图像R&lt;/font&gt;" style="ellipse;whiteSpace=wrap;html=1;rounded=0;" vertex="1" parent="1">
          <mxGeometry x="779" y="510" width="80" height="60" as="geometry" />
        </mxCell>
        <mxCell id="f4UbcGH3jjuggLkURZQa-54" value="&lt;font style=&quot;font-size: 16px&quot;&gt;传递参数&lt;/font&gt;" style="edgeStyle=orthogonalEdgeStyle;rounded=0;orthogonalLoop=1;jettySize=auto;html=1;exitX=0.5;exitY=0;exitDx=0;exitDy=0;fontSize=20;" edge="1" parent="1" source="f4UbcGH3jjuggLkURZQa-42">
          <mxGeometry relative="1" as="geometry">
            <mxPoint x="480" y="400" as="targetPoint" />
          </mxGeometry>
        </mxCell>
        <mxCell id="f4UbcGH3jjuggLkURZQa-42" value="&lt;font style=&quot;font-size: 20px&quot;&gt;判别器网络&lt;/font&gt;" style="whiteSpace=wrap;html=1;rounded=0;" vertex="1" parent="1">
          <mxGeometry x="414" y="450" width="130" height="80" as="geometry" />
        </mxCell>
        <mxCell id="f4UbcGH3jjuggLkURZQa-45" value="" style="endArrow=none;dashed=1;html=1;dashPattern=1 3;strokeWidth=2;rounded=0;" edge="1" parent="1">
          <mxGeometry width="50" height="50" relative="1" as="geometry">
            <mxPoint x="240" y="400" as="sourcePoint" />
            <mxPoint x="240" y="130" as="targetPoint" />
          </mxGeometry>
        </mxCell>
        <mxCell id="f4UbcGH3jjuggLkURZQa-46" value="" style="endArrow=none;dashed=1;html=1;dashPattern=1 3;strokeWidth=2;rounded=0;" edge="1" parent="1">
          <mxGeometry width="50" height="50" relative="1" as="geometry">
            <mxPoint x="240" y="400" as="sourcePoint" />
            <mxPoint x="760" y="400" as="targetPoint" />
          </mxGeometry>
        </mxCell>
        <mxCell id="f4UbcGH3jjuggLkURZQa-47" value="" style="endArrow=none;dashed=1;html=1;dashPattern=1 3;strokeWidth=2;rounded=0;" edge="1" parent="1">
          <mxGeometry width="50" height="50" relative="1" as="geometry">
            <mxPoint x="240" y="129.5" as="sourcePoint" />
            <mxPoint x="760" y="129.5" as="targetPoint" />
          </mxGeometry>
        </mxCell>
        <mxCell id="f4UbcGH3jjuggLkURZQa-48" value="" style="endArrow=none;dashed=1;html=1;dashPattern=1 3;strokeWidth=2;rounded=0;" edge="1" parent="1">
          <mxGeometry width="50" height="50" relative="1" as="geometry">
            <mxPoint x="760" y="400" as="sourcePoint" />
            <mxPoint x="760" y="130" as="targetPoint" />
          </mxGeometry>
        </mxCell>
        <mxCell id="f4UbcGH3jjuggLkURZQa-49" value="&lt;font style=&quot;font-size: 20px&quot;&gt;生成器网络&lt;/font&gt;" style="text;html=1;align=center;verticalAlign=middle;resizable=0;points=[];autosize=1;strokeColor=none;fillColor=none;" vertex="1" parent="1">
          <mxGeometry x="425" y="140" width="120" height="20" as="geometry" />
        </mxCell>
      </root>
    </mxGraphModel>
  </diagram>
  <diagram id="5a6paQ42DrwiSGM83EuL" name="Page-2">
    <mxGraphModel dx="2831" dy="1358" grid="1" gridSize="10" guides="1" tooltips="1" connect="1" arrows="1" fold="1" page="1" pageScale="1" pageWidth="827" pageHeight="1169" math="0" shadow="0">
      <root>
        <mxCell id="_ProbfvxezMLyR6A5FNK-0" />
        <mxCell id="_ProbfvxezMLyR6A5FNK-1" parent="_ProbfvxezMLyR6A5FNK-0" />
        <mxCell id="_ProbfvxezMLyR6A5FNK-61" value="0" style="whiteSpace=wrap;html=1;aspect=fixed;fontSize=14;fillColor=#dae8fc;strokeColor=#6c8ebf;" vertex="1" parent="_ProbfvxezMLyR6A5FNK-1">
          <mxGeometry x="-110" y="200" width="40" height="40" as="geometry" />
        </mxCell>
        <mxCell id="_ProbfvxezMLyR6A5FNK-62" value="1" style="whiteSpace=wrap;html=1;aspect=fixed;fontSize=14;fillColor=#dae8fc;strokeColor=#6c8ebf;" vertex="1" parent="_ProbfvxezMLyR6A5FNK-1">
          <mxGeometry x="-70" y="200" width="40" height="40" as="geometry" />
        </mxCell>
        <mxCell id="_ProbfvxezMLyR6A5FNK-63" value="3" style="whiteSpace=wrap;html=1;aspect=fixed;fontSize=14;" vertex="1" parent="_ProbfvxezMLyR6A5FNK-1">
          <mxGeometry x="10" y="200" width="40" height="40" as="geometry" />
        </mxCell>
        <mxCell id="_ProbfvxezMLyR6A5FNK-64" value="2" style="whiteSpace=wrap;html=1;aspect=fixed;fontSize=14;" vertex="1" parent="_ProbfvxezMLyR6A5FNK-1">
          <mxGeometry x="-30" y="200" width="40" height="40" as="geometry" />
        </mxCell>
        <mxCell id="_ProbfvxezMLyR6A5FNK-65" value="4" style="whiteSpace=wrap;html=1;aspect=fixed;fontSize=14;fillColor=#dae8fc;strokeColor=#6c8ebf;" vertex="1" parent="_ProbfvxezMLyR6A5FNK-1">
          <mxGeometry x="-110" y="240" width="40" height="40" as="geometry" />
        </mxCell>
        <mxCell id="_ProbfvxezMLyR6A5FNK-66" value="5" style="whiteSpace=wrap;html=1;aspect=fixed;fontSize=14;fillColor=#dae8fc;strokeColor=#6c8ebf;" vertex="1" parent="_ProbfvxezMLyR6A5FNK-1">
          <mxGeometry x="-70" y="240" width="40" height="40" as="geometry" />
        </mxCell>
        <mxCell id="_ProbfvxezMLyR6A5FNK-67" value="7" style="whiteSpace=wrap;html=1;aspect=fixed;fontSize=14;" vertex="1" parent="_ProbfvxezMLyR6A5FNK-1">
          <mxGeometry x="10" y="240" width="40" height="40" as="geometry" />
        </mxCell>
        <mxCell id="_ProbfvxezMLyR6A5FNK-68" value="6" style="whiteSpace=wrap;html=1;aspect=fixed;fontSize=14;" vertex="1" parent="_ProbfvxezMLyR6A5FNK-1">
          <mxGeometry x="-30" y="240" width="40" height="40" as="geometry" />
        </mxCell>
        <mxCell id="_ProbfvxezMLyR6A5FNK-69" value="8" style="whiteSpace=wrap;html=1;aspect=fixed;fontSize=14;" vertex="1" parent="_ProbfvxezMLyR6A5FNK-1">
          <mxGeometry x="-110" y="280" width="40" height="40" as="geometry" />
        </mxCell>
        <mxCell id="_ProbfvxezMLyR6A5FNK-70" value="9" style="whiteSpace=wrap;html=1;aspect=fixed;fontSize=14;" vertex="1" parent="_ProbfvxezMLyR6A5FNK-1">
          <mxGeometry x="-70" y="280" width="40" height="40" as="geometry" />
        </mxCell>
        <mxCell id="_ProbfvxezMLyR6A5FNK-71" value="11" style="whiteSpace=wrap;html=1;aspect=fixed;fontSize=14;" vertex="1" parent="_ProbfvxezMLyR6A5FNK-1">
          <mxGeometry x="10" y="280" width="40" height="40" as="geometry" />
        </mxCell>
        <mxCell id="_ProbfvxezMLyR6A5FNK-72" value="10" style="whiteSpace=wrap;html=1;aspect=fixed;fontSize=14;" vertex="1" parent="_ProbfvxezMLyR6A5FNK-1">
          <mxGeometry x="-30" y="280" width="40" height="40" as="geometry" />
        </mxCell>
        <mxCell id="_ProbfvxezMLyR6A5FNK-73" value="12" style="whiteSpace=wrap;html=1;aspect=fixed;fontSize=14;" vertex="1" parent="_ProbfvxezMLyR6A5FNK-1">
          <mxGeometry x="-110" y="320" width="40" height="40" as="geometry" />
        </mxCell>
        <mxCell id="_ProbfvxezMLyR6A5FNK-74" value="13" style="whiteSpace=wrap;html=1;aspect=fixed;fontSize=14;" vertex="1" parent="_ProbfvxezMLyR6A5FNK-1">
          <mxGeometry x="-70" y="320" width="40" height="40" as="geometry" />
        </mxCell>
        <mxCell id="_ProbfvxezMLyR6A5FNK-75" value="15" style="whiteSpace=wrap;html=1;aspect=fixed;fontSize=14;" vertex="1" parent="_ProbfvxezMLyR6A5FNK-1">
          <mxGeometry x="10" y="320" width="40" height="40" as="geometry" />
        </mxCell>
        <mxCell id="_ProbfvxezMLyR6A5FNK-76" value="14" style="whiteSpace=wrap;html=1;aspect=fixed;fontSize=14;" vertex="1" parent="_ProbfvxezMLyR6A5FNK-1">
          <mxGeometry x="-30" y="320" width="40" height="40" as="geometry" />
        </mxCell>
        <mxCell id="_ProbfvxezMLyR6A5FNK-77" value="" style="shape=flexArrow;endArrow=classic;html=1;rounded=0;fontSize=14;width=26;endSize=13.67;endWidth=14;" edge="1" parent="_ProbfvxezMLyR6A5FNK-1">
          <mxGeometry width="50" height="50" relative="1" as="geometry">
            <mxPoint x="110" y="280" as="sourcePoint" />
            <mxPoint x="210" y="280" as="targetPoint" />
          </mxGeometry>
        </mxCell>
        <mxCell id="_ProbfvxezMLyR6A5FNK-82" value="5" style="whiteSpace=wrap;html=1;aspect=fixed;fontSize=14;fillColor=#fff2cc;strokeColor=#d6b656;" vertex="1" parent="_ProbfvxezMLyR6A5FNK-1">
          <mxGeometry x="90" y="140" width="40" height="40" as="geometry" />
        </mxCell>
        <mxCell id="_ProbfvxezMLyR6A5FNK-83" value="" style="whiteSpace=wrap;html=1;aspect=fixed;fontSize=14;fillColor=#fff2cc;strokeColor=#d6b656;" vertex="1" parent="_ProbfvxezMLyR6A5FNK-1">
          <mxGeometry x="130" y="140" width="40" height="40" as="geometry" />
        </mxCell>
        <mxCell id="_ProbfvxezMLyR6A5FNK-86" value="" style="whiteSpace=wrap;html=1;aspect=fixed;fontSize=14;fillColor=#fff2cc;strokeColor=#d6b656;" vertex="1" parent="_ProbfvxezMLyR6A5FNK-1">
          <mxGeometry x="90" y="180" width="40" height="40" as="geometry" />
        </mxCell>
        <mxCell id="_ProbfvxezMLyR6A5FNK-87" value="" style="whiteSpace=wrap;html=1;aspect=fixed;fontSize=14;fillColor=#fff2cc;strokeColor=#d6b656;" vertex="1" parent="_ProbfvxezMLyR6A5FNK-1">
          <mxGeometry x="130" y="180" width="40" height="40" as="geometry" />
        </mxCell>
        <mxCell id="_ProbfvxezMLyR6A5FNK-99" value="0" style="whiteSpace=wrap;html=1;aspect=fixed;fontSize=14;" vertex="1" parent="_ProbfvxezMLyR6A5FNK-1">
          <mxGeometry x="250" y="200" width="40" height="40" as="geometry" />
        </mxCell>
        <mxCell id="_ProbfvxezMLyR6A5FNK-100" value="1" style="whiteSpace=wrap;html=1;aspect=fixed;fontSize=14;" vertex="1" parent="_ProbfvxezMLyR6A5FNK-1">
          <mxGeometry x="290" y="200" width="40" height="40" as="geometry" />
        </mxCell>
        <mxCell id="_ProbfvxezMLyR6A5FNK-101" value="3" style="whiteSpace=wrap;html=1;aspect=fixed;fontSize=14;fillColor=#dae8fc;strokeColor=#6c8ebf;" vertex="1" parent="_ProbfvxezMLyR6A5FNK-1">
          <mxGeometry x="370" y="200" width="40" height="40" as="geometry" />
        </mxCell>
        <mxCell id="_ProbfvxezMLyR6A5FNK-102" value="2" style="whiteSpace=wrap;html=1;aspect=fixed;fontSize=14;fillColor=#dae8fc;strokeColor=#6c8ebf;" vertex="1" parent="_ProbfvxezMLyR6A5FNK-1">
          <mxGeometry x="330" y="200" width="40" height="40" as="geometry" />
        </mxCell>
        <mxCell id="_ProbfvxezMLyR6A5FNK-103" value="4" style="whiteSpace=wrap;html=1;aspect=fixed;fontSize=14;" vertex="1" parent="_ProbfvxezMLyR6A5FNK-1">
          <mxGeometry x="250" y="240" width="40" height="40" as="geometry" />
        </mxCell>
        <mxCell id="_ProbfvxezMLyR6A5FNK-104" value="5" style="whiteSpace=wrap;html=1;aspect=fixed;fontSize=14;" vertex="1" parent="_ProbfvxezMLyR6A5FNK-1">
          <mxGeometry x="290" y="240" width="40" height="40" as="geometry" />
        </mxCell>
        <mxCell id="_ProbfvxezMLyR6A5FNK-105" value="7" style="whiteSpace=wrap;html=1;aspect=fixed;fontSize=14;fillColor=#dae8fc;strokeColor=#6c8ebf;" vertex="1" parent="_ProbfvxezMLyR6A5FNK-1">
          <mxGeometry x="370" y="240" width="40" height="40" as="geometry" />
        </mxCell>
        <mxCell id="_ProbfvxezMLyR6A5FNK-106" value="6" style="whiteSpace=wrap;html=1;aspect=fixed;fontSize=14;fillColor=#dae8fc;strokeColor=#6c8ebf;" vertex="1" parent="_ProbfvxezMLyR6A5FNK-1">
          <mxGeometry x="330" y="240" width="40" height="40" as="geometry" />
        </mxCell>
        <mxCell id="_ProbfvxezMLyR6A5FNK-107" value="8" style="whiteSpace=wrap;html=1;aspect=fixed;fontSize=14;" vertex="1" parent="_ProbfvxezMLyR6A5FNK-1">
          <mxGeometry x="250" y="280" width="40" height="40" as="geometry" />
        </mxCell>
        <mxCell id="_ProbfvxezMLyR6A5FNK-108" value="9" style="whiteSpace=wrap;html=1;aspect=fixed;fontSize=14;" vertex="1" parent="_ProbfvxezMLyR6A5FNK-1">
          <mxGeometry x="290" y="280" width="40" height="40" as="geometry" />
        </mxCell>
        <mxCell id="_ProbfvxezMLyR6A5FNK-109" value="11" style="whiteSpace=wrap;html=1;aspect=fixed;fontSize=14;" vertex="1" parent="_ProbfvxezMLyR6A5FNK-1">
          <mxGeometry x="370" y="280" width="40" height="40" as="geometry" />
        </mxCell>
        <mxCell id="_ProbfvxezMLyR6A5FNK-110" value="10" style="whiteSpace=wrap;html=1;aspect=fixed;fontSize=14;" vertex="1" parent="_ProbfvxezMLyR6A5FNK-1">
          <mxGeometry x="330" y="280" width="40" height="40" as="geometry" />
        </mxCell>
        <mxCell id="_ProbfvxezMLyR6A5FNK-111" value="12" style="whiteSpace=wrap;html=1;aspect=fixed;fontSize=14;" vertex="1" parent="_ProbfvxezMLyR6A5FNK-1">
          <mxGeometry x="250" y="320" width="40" height="40" as="geometry" />
        </mxCell>
        <mxCell id="_ProbfvxezMLyR6A5FNK-112" value="13" style="whiteSpace=wrap;html=1;aspect=fixed;fontSize=14;" vertex="1" parent="_ProbfvxezMLyR6A5FNK-1">
          <mxGeometry x="290" y="320" width="40" height="40" as="geometry" />
        </mxCell>
        <mxCell id="_ProbfvxezMLyR6A5FNK-113" value="15" style="whiteSpace=wrap;html=1;aspect=fixed;fontSize=14;" vertex="1" parent="_ProbfvxezMLyR6A5FNK-1">
          <mxGeometry x="370" y="320" width="40" height="40" as="geometry" />
        </mxCell>
        <mxCell id="_ProbfvxezMLyR6A5FNK-114" value="14" style="whiteSpace=wrap;html=1;aspect=fixed;fontSize=14;" vertex="1" parent="_ProbfvxezMLyR6A5FNK-1">
          <mxGeometry x="330" y="320" width="40" height="40" as="geometry" />
        </mxCell>
        <mxCell id="_ProbfvxezMLyR6A5FNK-115" value="" style="shape=flexArrow;endArrow=classic;html=1;rounded=0;fontSize=14;width=26;endSize=13.67;endWidth=14;" edge="1" parent="_ProbfvxezMLyR6A5FNK-1">
          <mxGeometry width="50" height="50" relative="1" as="geometry">
            <mxPoint x="430" y="280" as="sourcePoint" />
            <mxPoint x="530" y="280" as="targetPoint" />
          </mxGeometry>
        </mxCell>
        <mxCell id="_ProbfvxezMLyR6A5FNK-116" value="5" style="whiteSpace=wrap;html=1;aspect=fixed;fontSize=14;fillColor=#fff2cc;strokeColor=#d6b656;" vertex="1" parent="_ProbfvxezMLyR6A5FNK-1">
          <mxGeometry x="440" y="140" width="40" height="40" as="geometry" />
        </mxCell>
        <mxCell id="_ProbfvxezMLyR6A5FNK-117" value="7" style="whiteSpace=wrap;html=1;aspect=fixed;fontSize=14;fillColor=#fff2cc;strokeColor=#d6b656;" vertex="1" parent="_ProbfvxezMLyR6A5FNK-1">
          <mxGeometry x="480" y="140" width="40" height="40" as="geometry" />
        </mxCell>
        <mxCell id="_ProbfvxezMLyR6A5FNK-118" value="" style="whiteSpace=wrap;html=1;aspect=fixed;fontSize=14;fillColor=#fff2cc;strokeColor=#d6b656;" vertex="1" parent="_ProbfvxezMLyR6A5FNK-1">
          <mxGeometry x="440" y="180" width="40" height="40" as="geometry" />
        </mxCell>
        <mxCell id="_ProbfvxezMLyR6A5FNK-119" value="" style="whiteSpace=wrap;html=1;aspect=fixed;fontSize=14;fillColor=#fff2cc;strokeColor=#d6b656;" vertex="1" parent="_ProbfvxezMLyR6A5FNK-1">
          <mxGeometry x="480" y="180" width="40" height="40" as="geometry" />
        </mxCell>
        <mxCell id="_ProbfvxezMLyR6A5FNK-120" value="" style="shape=flexArrow;endArrow=classic;html=1;rounded=0;fontSize=14;width=26;endSize=13.67;endWidth=14;" edge="1" parent="_ProbfvxezMLyR6A5FNK-1">
          <mxGeometry width="50" height="50" relative="1" as="geometry">
            <mxPoint x="760" y="279" as="sourcePoint" />
            <mxPoint x="860" y="279" as="targetPoint" />
          </mxGeometry>
        </mxCell>
        <mxCell id="_ProbfvxezMLyR6A5FNK-121" value="5" style="whiteSpace=wrap;html=1;aspect=fixed;fontSize=14;fillColor=#fff2cc;strokeColor=#d6b656;" vertex="1" parent="_ProbfvxezMLyR6A5FNK-1">
          <mxGeometry x="770" y="139" width="40" height="40" as="geometry" />
        </mxCell>
        <mxCell id="_ProbfvxezMLyR6A5FNK-122" value="7" style="whiteSpace=wrap;html=1;aspect=fixed;fontSize=14;fillColor=#fff2cc;strokeColor=#d6b656;" vertex="1" parent="_ProbfvxezMLyR6A5FNK-1">
          <mxGeometry x="810" y="139" width="40" height="40" as="geometry" />
        </mxCell>
        <mxCell id="_ProbfvxezMLyR6A5FNK-123" value="13" style="whiteSpace=wrap;html=1;aspect=fixed;fontSize=14;fillColor=#fff2cc;strokeColor=#d6b656;" vertex="1" parent="_ProbfvxezMLyR6A5FNK-1">
          <mxGeometry x="770" y="179" width="40" height="40" as="geometry" />
        </mxCell>
        <mxCell id="_ProbfvxezMLyR6A5FNK-124" value="" style="whiteSpace=wrap;html=1;aspect=fixed;fontSize=14;fillColor=#fff2cc;strokeColor=#d6b656;" vertex="1" parent="_ProbfvxezMLyR6A5FNK-1">
          <mxGeometry x="810" y="179" width="40" height="40" as="geometry" />
        </mxCell>
        <mxCell id="_ProbfvxezMLyR6A5FNK-125" value="" style="shape=flexArrow;endArrow=classic;html=1;rounded=0;fontSize=14;width=26;endSize=13.67;endWidth=14;" edge="1" parent="_ProbfvxezMLyR6A5FNK-1">
          <mxGeometry width="50" height="50" relative="1" as="geometry">
            <mxPoint x="1100" y="279" as="sourcePoint" />
            <mxPoint x="1200" y="279" as="targetPoint" />
          </mxGeometry>
        </mxCell>
        <mxCell id="_ProbfvxezMLyR6A5FNK-126" value="5" style="whiteSpace=wrap;html=1;aspect=fixed;fontSize=14;fillColor=#fff2cc;strokeColor=#d6b656;" vertex="1" parent="_ProbfvxezMLyR6A5FNK-1">
          <mxGeometry x="1239" y="240" width="40" height="40" as="geometry" />
        </mxCell>
        <mxCell id="_ProbfvxezMLyR6A5FNK-127" value="7" style="whiteSpace=wrap;html=1;aspect=fixed;fontSize=14;fillColor=#fff2cc;strokeColor=#d6b656;" vertex="1" parent="_ProbfvxezMLyR6A5FNK-1">
          <mxGeometry x="1279" y="240" width="40" height="40" as="geometry" />
        </mxCell>
        <mxCell id="_ProbfvxezMLyR6A5FNK-128" value="13" style="whiteSpace=wrap;html=1;aspect=fixed;fontSize=14;fillColor=#fff2cc;strokeColor=#d6b656;" vertex="1" parent="_ProbfvxezMLyR6A5FNK-1">
          <mxGeometry x="1239" y="280" width="40" height="40" as="geometry" />
        </mxCell>
        <mxCell id="_ProbfvxezMLyR6A5FNK-129" value="15" style="whiteSpace=wrap;html=1;aspect=fixed;fontSize=14;fillColor=#fff2cc;strokeColor=#d6b656;" vertex="1" parent="_ProbfvxezMLyR6A5FNK-1">
          <mxGeometry x="1279" y="280" width="40" height="40" as="geometry" />
        </mxCell>
        <mxCell id="_ProbfvxezMLyR6A5FNK-135" value="0" style="whiteSpace=wrap;html=1;aspect=fixed;fontSize=14;" vertex="1" parent="_ProbfvxezMLyR6A5FNK-1">
          <mxGeometry x="560" y="200" width="40" height="40" as="geometry" />
        </mxCell>
        <mxCell id="_ProbfvxezMLyR6A5FNK-136" value="1" style="whiteSpace=wrap;html=1;aspect=fixed;fontSize=14;" vertex="1" parent="_ProbfvxezMLyR6A5FNK-1">
          <mxGeometry x="600" y="200" width="40" height="40" as="geometry" />
        </mxCell>
        <mxCell id="_ProbfvxezMLyR6A5FNK-137" value="3" style="whiteSpace=wrap;html=1;aspect=fixed;fontSize=14;" vertex="1" parent="_ProbfvxezMLyR6A5FNK-1">
          <mxGeometry x="680" y="200" width="40" height="40" as="geometry" />
        </mxCell>
        <mxCell id="_ProbfvxezMLyR6A5FNK-138" value="2" style="whiteSpace=wrap;html=1;aspect=fixed;fontSize=14;" vertex="1" parent="_ProbfvxezMLyR6A5FNK-1">
          <mxGeometry x="640" y="200" width="40" height="40" as="geometry" />
        </mxCell>
        <mxCell id="_ProbfvxezMLyR6A5FNK-139" value="4" style="whiteSpace=wrap;html=1;aspect=fixed;fontSize=14;" vertex="1" parent="_ProbfvxezMLyR6A5FNK-1">
          <mxGeometry x="560" y="240" width="40" height="40" as="geometry" />
        </mxCell>
        <mxCell id="_ProbfvxezMLyR6A5FNK-140" value="5" style="whiteSpace=wrap;html=1;aspect=fixed;fontSize=14;" vertex="1" parent="_ProbfvxezMLyR6A5FNK-1">
          <mxGeometry x="600" y="240" width="40" height="40" as="geometry" />
        </mxCell>
        <mxCell id="_ProbfvxezMLyR6A5FNK-141" value="7" style="whiteSpace=wrap;html=1;aspect=fixed;fontSize=14;" vertex="1" parent="_ProbfvxezMLyR6A5FNK-1">
          <mxGeometry x="680" y="240" width="40" height="40" as="geometry" />
        </mxCell>
        <mxCell id="_ProbfvxezMLyR6A5FNK-142" value="6" style="whiteSpace=wrap;html=1;aspect=fixed;fontSize=14;" vertex="1" parent="_ProbfvxezMLyR6A5FNK-1">
          <mxGeometry x="640" y="240" width="40" height="40" as="geometry" />
        </mxCell>
        <mxCell id="_ProbfvxezMLyR6A5FNK-143" value="8" style="whiteSpace=wrap;html=1;aspect=fixed;fontSize=14;fillColor=#dae8fc;strokeColor=#6c8ebf;" vertex="1" parent="_ProbfvxezMLyR6A5FNK-1">
          <mxGeometry x="560" y="280" width="40" height="40" as="geometry" />
        </mxCell>
        <mxCell id="_ProbfvxezMLyR6A5FNK-144" value="9" style="whiteSpace=wrap;html=1;aspect=fixed;fontSize=14;fillColor=#dae8fc;strokeColor=#6c8ebf;" vertex="1" parent="_ProbfvxezMLyR6A5FNK-1">
          <mxGeometry x="600" y="280" width="40" height="40" as="geometry" />
        </mxCell>
        <mxCell id="_ProbfvxezMLyR6A5FNK-145" value="11" style="whiteSpace=wrap;html=1;aspect=fixed;fontSize=14;" vertex="1" parent="_ProbfvxezMLyR6A5FNK-1">
          <mxGeometry x="680" y="280" width="40" height="40" as="geometry" />
        </mxCell>
        <mxCell id="_ProbfvxezMLyR6A5FNK-146" value="10" style="whiteSpace=wrap;html=1;aspect=fixed;fontSize=14;" vertex="1" parent="_ProbfvxezMLyR6A5FNK-1">
          <mxGeometry x="640" y="280" width="40" height="40" as="geometry" />
        </mxCell>
        <mxCell id="_ProbfvxezMLyR6A5FNK-147" value="12" style="whiteSpace=wrap;html=1;aspect=fixed;fontSize=14;fillColor=#dae8fc;strokeColor=#6c8ebf;" vertex="1" parent="_ProbfvxezMLyR6A5FNK-1">
          <mxGeometry x="560" y="320" width="40" height="40" as="geometry" />
        </mxCell>
        <mxCell id="_ProbfvxezMLyR6A5FNK-148" value="13" style="whiteSpace=wrap;html=1;aspect=fixed;fontSize=14;fillColor=#dae8fc;strokeColor=#6c8ebf;" vertex="1" parent="_ProbfvxezMLyR6A5FNK-1">
          <mxGeometry x="600" y="320" width="40" height="40" as="geometry" />
        </mxCell>
        <mxCell id="_ProbfvxezMLyR6A5FNK-149" value="15" style="whiteSpace=wrap;html=1;aspect=fixed;fontSize=14;" vertex="1" parent="_ProbfvxezMLyR6A5FNK-1">
          <mxGeometry x="680" y="320" width="40" height="40" as="geometry" />
        </mxCell>
        <mxCell id="_ProbfvxezMLyR6A5FNK-150" value="14" style="whiteSpace=wrap;html=1;aspect=fixed;fontSize=14;" vertex="1" parent="_ProbfvxezMLyR6A5FNK-1">
          <mxGeometry x="640" y="320" width="40" height="40" as="geometry" />
        </mxCell>
        <mxCell id="_ProbfvxezMLyR6A5FNK-151" value="0" style="whiteSpace=wrap;html=1;aspect=fixed;fontSize=14;" vertex="1" parent="_ProbfvxezMLyR6A5FNK-1">
          <mxGeometry x="900" y="200" width="40" height="40" as="geometry" />
        </mxCell>
        <mxCell id="_ProbfvxezMLyR6A5FNK-152" value="1" style="whiteSpace=wrap;html=1;aspect=fixed;fontSize=14;" vertex="1" parent="_ProbfvxezMLyR6A5FNK-1">
          <mxGeometry x="940" y="200" width="40" height="40" as="geometry" />
        </mxCell>
        <mxCell id="_ProbfvxezMLyR6A5FNK-153" value="3" style="whiteSpace=wrap;html=1;aspect=fixed;fontSize=14;" vertex="1" parent="_ProbfvxezMLyR6A5FNK-1">
          <mxGeometry x="1020" y="200" width="40" height="40" as="geometry" />
        </mxCell>
        <mxCell id="_ProbfvxezMLyR6A5FNK-154" value="2" style="whiteSpace=wrap;html=1;aspect=fixed;fontSize=14;" vertex="1" parent="_ProbfvxezMLyR6A5FNK-1">
          <mxGeometry x="980" y="200" width="40" height="40" as="geometry" />
        </mxCell>
        <mxCell id="_ProbfvxezMLyR6A5FNK-155" value="4" style="whiteSpace=wrap;html=1;aspect=fixed;fontSize=14;" vertex="1" parent="_ProbfvxezMLyR6A5FNK-1">
          <mxGeometry x="900" y="240" width="40" height="40" as="geometry" />
        </mxCell>
        <mxCell id="_ProbfvxezMLyR6A5FNK-156" value="5" style="whiteSpace=wrap;html=1;aspect=fixed;fontSize=14;" vertex="1" parent="_ProbfvxezMLyR6A5FNK-1">
          <mxGeometry x="940" y="240" width="40" height="40" as="geometry" />
        </mxCell>
        <mxCell id="_ProbfvxezMLyR6A5FNK-157" value="7" style="whiteSpace=wrap;html=1;aspect=fixed;fontSize=14;" vertex="1" parent="_ProbfvxezMLyR6A5FNK-1">
          <mxGeometry x="1020" y="240" width="40" height="40" as="geometry" />
        </mxCell>
        <mxCell id="_ProbfvxezMLyR6A5FNK-158" value="6" style="whiteSpace=wrap;html=1;aspect=fixed;fontSize=14;" vertex="1" parent="_ProbfvxezMLyR6A5FNK-1">
          <mxGeometry x="980" y="240" width="40" height="40" as="geometry" />
        </mxCell>
        <mxCell id="_ProbfvxezMLyR6A5FNK-159" value="8" style="whiteSpace=wrap;html=1;aspect=fixed;fontSize=14;" vertex="1" parent="_ProbfvxezMLyR6A5FNK-1">
          <mxGeometry x="900" y="280" width="40" height="40" as="geometry" />
        </mxCell>
        <mxCell id="_ProbfvxezMLyR6A5FNK-160" value="9" style="whiteSpace=wrap;html=1;aspect=fixed;fontSize=14;" vertex="1" parent="_ProbfvxezMLyR6A5FNK-1">
          <mxGeometry x="940" y="280" width="40" height="40" as="geometry" />
        </mxCell>
        <mxCell id="_ProbfvxezMLyR6A5FNK-161" value="11" style="whiteSpace=wrap;html=1;aspect=fixed;fontSize=14;fillColor=#dae8fc;strokeColor=#6c8ebf;" vertex="1" parent="_ProbfvxezMLyR6A5FNK-1">
          <mxGeometry x="1020" y="280" width="40" height="40" as="geometry" />
        </mxCell>
        <mxCell id="_ProbfvxezMLyR6A5FNK-162" value="10" style="whiteSpace=wrap;html=1;aspect=fixed;fontSize=14;fillColor=#dae8fc;strokeColor=#6c8ebf;" vertex="1" parent="_ProbfvxezMLyR6A5FNK-1">
          <mxGeometry x="980" y="280" width="40" height="40" as="geometry" />
        </mxCell>
        <mxCell id="_ProbfvxezMLyR6A5FNK-163" value="12" style="whiteSpace=wrap;html=1;aspect=fixed;fontSize=14;" vertex="1" parent="_ProbfvxezMLyR6A5FNK-1">
          <mxGeometry x="900" y="320" width="40" height="40" as="geometry" />
        </mxCell>
        <mxCell id="_ProbfvxezMLyR6A5FNK-164" value="13" style="whiteSpace=wrap;html=1;aspect=fixed;fontSize=14;" vertex="1" parent="_ProbfvxezMLyR6A5FNK-1">
          <mxGeometry x="940" y="320" width="40" height="40" as="geometry" />
        </mxCell>
        <mxCell id="_ProbfvxezMLyR6A5FNK-165" value="15" style="whiteSpace=wrap;html=1;aspect=fixed;fontSize=14;fillColor=#dae8fc;strokeColor=#6c8ebf;" vertex="1" parent="_ProbfvxezMLyR6A5FNK-1">
          <mxGeometry x="1020" y="320" width="40" height="40" as="geometry" />
        </mxCell>
        <mxCell id="_ProbfvxezMLyR6A5FNK-166" value="14" style="whiteSpace=wrap;html=1;aspect=fixed;fontSize=14;fillColor=#dae8fc;strokeColor=#6c8ebf;" vertex="1" parent="_ProbfvxezMLyR6A5FNK-1">
          <mxGeometry x="980" y="320" width="40" height="40" as="geometry" />
        </mxCell>
      </root>
    </mxGraphModel>
  </diagram>
</mxfile>
